<svg xmlns="http://www.w3.org/2000/svg" width="430" height="430" style="width:100%;height:100%;transform:translate3d(0,0,0);content-visibility:visible" viewBox="0 0 430 430"><defs><clipPath id="k"><path d="M0 0h430v430H0z"/></clipPath><clipPath id="o"><path d="M0 0h430v430H0z"/></clipPath><clipPath id="g"><path d="M0 0h430v430H0z"/></clipPath><clipPath id="l"><path d="M0 0h430v430H0z"/></clipPath><clipPath id="i"><path d="M0 0h430v430H0z"/></clipPath><filter id="a" width="100%" height="100%" x="0%" y="0%" filterUnits="objectBoundingBox"><feComponentTransfer in="SourceGraphic"><feFuncA tableValues="1.0 0.0" type="table"/></feComponentTransfer></filter><filter id="p" width="300%" height="300%" x="-100%" y="-100%"><feGaussianBlur result="filter_result_0"/></filter><filter id="d" width="100%" height="100%" x="0%" y="0%" filterUnits="objectBoundingBox"><feComponentTransfer in="SourceGraphic"><feFuncA tableValues="1.0 0.0" type="table"/></feComponentTransfer></filter><filter id="n" width="300%" height="300%" x="-100%" y="-100%"><feGaussianBlur result="filter_result_0" stdDeviation="52.5 52.5"/></filter><mask id="h" mask-type="alpha"><g filter="url(#a)"><path fill="#fff" d="M0 0h430v430H0z" opacity="0"/><use xmlns:ns1="http://www.w3.org/1999/xlink" ns1:href="#b"/></g></mask><mask id="q" mask-type="alpha"><use xmlns:ns2="http://www.w3.org/1999/xlink" ns2:href="#c"/></mask><mask id="j" mask-type="alpha"><g filter="url(#d)"><path fill="#fff" d="M0 0h430v430H0z" opacity="0"/><use xmlns:ns3="http://www.w3.org/1999/xlink" ns3:href="#e"/></g></mask><mask id="m" mask-type="alpha"><use xmlns:ns4="http://www.w3.org/1999/xlink" ns4:href="#f"/></mask><path id="b" style="display:none"/><path id="e" fill="red" d="M60 80c-16.569 0-30 13.431-30 30v160c0 16.569 13.431 30 30 30h310c16.569 0 30-13.431 30-30V110c0-16.569-13.431-30-30-30H60z" style="display:block"/><g id="c" clip-path="url(#g)" style="display:none"><path fill-opacity="0" stroke-linejoin="round" class="primary" style="display:none"/><g fill-opacity="0" stroke-linecap="round" stroke-linejoin="round" style="display:none"><path class="secondary"/><path class="secondary"/></g><g fill-opacity="0" stroke-linecap="round" stroke-linejoin="round" style="display:none"><path class="secondary"/><path class="secondary"/><path class="secondary"/></g><g fill-opacity="0" stroke-linecap="round" stroke-linejoin="round" style="display:none"><path class="secondary"/><path class="secondary"/></g><g mask="url(#h)" style="display:none"><path/><path fill-opacity="0" stroke-linejoin="round" class="primary"/></g><path fill-opacity="0" stroke-linejoin="round" class="primary" style="display:none"/></g><g id="f" clip-path="url(#i)" style="display:block"><path fill-opacity="0" stroke="#08A88A" stroke-linecap="round" stroke-linejoin="round" stroke-width="12" d="M0 35v-70m-28.194 0h56.388" class="secondary" style="display:block" transform="translate(144.194 190)"/><path fill-opacity="0" stroke="#08A88A" stroke-linecap="round" stroke-linejoin="round" stroke-width="12" d="M8.75 0h-33.056v35H8.75c8.591 0 15.556-6.965 15.556-15.556v-3.888C24.306 6.965 17.341 0 8.75 0zM4.861-35h-29.167V0H4.861c8.591 0 15.556-6.965 15.556-15.556v-3.888C20.417-28.035 13.452-35 4.861-35z" class="secondary" style="display:block" transform="translate(289.694 190)"/><path fill-opacity="0" stroke="#08A88A" stroke-linecap="round" stroke-linejoin="round" stroke-width="12" d="M-21.99 15h43.975m-43.975 0 16.764-50H5.209l16.776 50m-43.975 0L-29 35m50.985-20L29 35" class="secondary" style="display:block" transform="translate(211.389 190)"/><g mask="url(#j)" style="display:block"><path fill="red" d="M30 260v60c0 16.569 13.431 30 30 30h310c16.569 0 30-13.431 30-30v-60"/><path fill-opacity="0" stroke="#121331" stroke-linejoin="round" stroke-width="12" d="M30 260v60c0 16.569 13.431 30 30 30h310c16.569 0 30-13.431 30-30v-60" class="primary"/></g><path fill-opacity="0" stroke="#121331" stroke-linejoin="round" stroke-width="12" d="M-155-110c-16.569 0-30 13.431-30 30V80c0 16.569 13.431 30 30 30h310c16.569 0 30-13.431 30-30V-80c0-16.569-13.431-30-30-30h-310z" class="primary" style="display:block" transform="translate(215 190)"/></g></defs><g clip-path="url(#k)"><g clip-path="url(#l)" mask="url(#m)" style="display:block"><g filter="url(#n)" transform="rotate(-94 238.762 -16.565) scale(2.4)"><g class="design"><path fill="#4BE1EC" d="M0-250c137.975 0 250 112.025 250 250S137.975 250 0 250-250 137.975-250 0-137.975-250 0-250z" class="primary"/></g><g class="design"><path fill="#CB5EEE" d="M113.242-295.384c97.478 0 176.5 79.022 176.5 176.5s-79.022 176.5-176.5 176.5c-43.948 0-74.396-34.057-105.29-60.631-37.631-32.369-71.21-62.338-71.21-115.869 0-97.478 79.022-176.5 176.5-176.5z" class="secondary"/></g></g></g><g clip-path="url(#o)" filter="url(#p)" mask="url(#q)" style="display:none"><g class="design"><path class="primary"/></g><g class="design"><path class="secondary"/></g></g></g></svg>